<?xml version="1.0"?>
<svg xmlns="http://www.w3.org/2000/svg" height="290.34384" viewBox="0 0 264.09 290.34384" width="264.09" fill="#e1d3f5"><path d="m6.0000012 290.28385a6 6 0 0 1 -5.99999997-6v-66a6 6 0 0 1 2.99999997-5.2l68.8899998-39.77a6 6 0 1 1 6 10.39l-65.89 38v52.13l116.999999-67.57a6.0033324 6.0033324 0 0 1 6 10.4l-125.9999988 72.76a5.93 5.93 0 0 1 -3 .86z" fill="#e1d3f5"/><path d="m189.2 184.52385a6 6 0 0 1 -3-11.2l48.8-28.18-222.999999-128.740001v52.13l123.699999 71.410001a6.0033324 6.0033324 0 0 1 -6 10.4l-126.6999988-73.150001a6 6 0 0 1 -2.99999997-5.2v-65.9999996a6 6 0 0 1 8.99999997-5.19l240.9999988 139.1300006a6 6 0 0 1 0 10.4l-57.81 33.37a5.93 5.93 0 0 1 -2.99.82z" fill="#e1d3f5"/><path d="m192.18 116.04385a6 6 0 0 1 -3-11.19l62.91-36.320001v-52.13l-117 67.57a6.0033324 6.0033324 0 1 1 -6-10.4l126-72.7599996a6 6 0 0 1 9 5.19v65.9999996a6 6 0 0 1 -3 5.2l-65.91 38.000001a5.89 5.89 0 0 1 -3 .84z" fill="#e1d3f5"/><path d="m258.08 290.28385a5.93 5.93 0 0 1 -3-.81l-240.999999-139.13a6 6 0 0 1 0-10.4l55.35-32a6 6 0 1 1 6 10.39l-46.35 26.81 222.999999 128.74v-52.13l-123.7-71.41a6.0033324 6.0033324 0 0 1 6-10.4l126.7 73.2a6 6 0 0 1 3 5.2v66a6 6 0 0 1 -6 6z" fill="#e1d3f5"/></svg>
